<?xml version="1.0" encoding="UTF-8"?>
<svg id="Layer_2" data-name="Layer 2" xmlns="http://www.w3.org/2000/svg" xmlns:xlink="http://www.w3.org/1999/xlink" viewBox="0 0 352.1 271.33">
  <defs>
    <style>
      .cls-1 {
        fill: url(#linear-gradient);
      }
    </style>
    <linearGradient id="linear-gradient" x1="176.05" y1="321.8" x2="176.05" y2="-30.3" gradientUnits="userSpaceOnUse">
      <stop offset=".13" stop-color="#f15a24"/>
      <stop offset=".22" stop-color="#f46b2e"/>
      <stop offset=".38" stop-color="#f8853d"/>
      <stop offset=".55" stop-color="#fc9849"/>
      <stop offset=".72" stop-color="#fea44f"/>
      <stop offset=".9" stop-color="#ffa852"/>
    </linearGradient>
  </defs>
  <g id="Layer_1-2" data-name="Layer 1">
    <path class="cls-1" d="m234.39,114.12c9.71,0,16.59,3.8,20.63,11.41,4.04,7.61,6.07,19.1,6.07,34.47,0,8.25-.85,15.94-2.55,23.06-1.7,7.12-4.86,12.87-9.47,17.24-4.61,4.37-11.37,6.55-20.27,6.55h-8.5v-71.86c0-8.41.85-14,2.55-16.75,1.7-2.75,5.54-4.13,11.53-4.13Zm62.8,72.58c-1.71,2.3-3.65,4.53-5.87,6.68-5.58,5.42-13.27,9.83-23.06,13.23-9.79,3.4-22.13,5.1-37.02,5.1h-10.92v41.75c0,6.47.64,11.29,1.94,14.44.55,1.34,1.35,2.47,2.37,3.42h127.48l-54.91-84.63Zm-237.47,80.9c2.03-1.77,3.41-4.74,4.11-8.83.76-4.47,1.14-10.78,1.14-18.74v-68.82L0,271.33h51.29c3.74-.87,6.57-2.12,8.43-3.73Zm116.66-60.56v-72.04c0-4.8-.29-8.57-.86-11.34-.05-.03-.09-.07-.13-.1-2.89-2.04-7.88-3.45-14.82-4.19l-1.89-.2v-5.04s-.01,0-.02,0v-4.85c4.37.16,10.2.33,17.48.48,7.28.16,14.57.24,21.85.24,7.93,0,15.57-.08,22.94-.24,7.36-.16,12.58-.24,15.66-.24,3.74,0,7.31.12,10.75.35l-24.3-37.46c-4.46,10.37-14.77,17.64-26.79,17.64-16.1,0-29.15-13.05-29.15-29.15,0-4.8,1.17-9.33,3.23-13.32.42,6.47,5.78,11.58,12.36,11.58s12.4-5.55,12.4-12.4c0-6.39-4.84-11.66-11.06-12.32,3.72-1.72,7.86-2.69,12.23-2.69.14,0,.27,0,.41.01L176.05,0l-76.98,118.64,77.3,88.4Zm-101.8-43.73v72.97c0,9.36.46,16.6,1.37,21.52.84,4.53,2.61,7.65,5.42,9.52,2.64,1.76,6.77,3.11,12.3,4.01h72.64l-91.72-108.02Z"/>
  </g>
</svg>