<?xml version="1.0" encoding="UTF-8"?>
<svg id="Layer_2" data-name="Layer 2" xmlns="http://www.w3.org/2000/svg" xmlns:xlink="http://www.w3.org/1999/xlink" viewBox="0 0 529.12 332.36">
  <defs>
    <style>
      .cls-1 {
        letter-spacing: .75em;
      }

      .cls-2 {
        letter-spacing: .75em;
      }

      .cls-3 {
        letter-spacing: .71em;
      }

      .cls-4 {
        fill: #f26128;
        font-family: CenturySchoolbook-BoldItalic, 'Century Schoolbook';
        font-size: 115.95px;
        font-style: italic;
        font-weight: 700;
        letter-spacing: .08em;
      }

      .cls-5 {
        letter-spacing: .67em;
      }

      .cls-6 {
        letter-spacing: .75em;
      }

      .cls-7 {
        fill: url(#linear-gradient);
      }

      .cls-8 {
        fill: #a67c52;
        font-family: SofiaPro-Black, 'SofiaPro Black';
        font-size: 38.93px;
        font-weight: 800;
      }
    </style>
    <linearGradient id="linear-gradient" x1="268.34" y1="184.58" x2="268.34" y2="-17.38" gradientUnits="userSpaceOnUse">
      <stop offset=".13" stop-color="#f15a24"/>
      <stop offset=".22" stop-color="#f46b2e"/>
      <stop offset=".38" stop-color="#f8853d"/>
      <stop offset=".55" stop-color="#fc9849"/>
      <stop offset=".72" stop-color="#fea44f"/>
      <stop offset=".9" stop-color="#ffa852"/>
    </linearGradient>
  </defs>
  <g id="Layer_1-2" data-name="Layer 1">
    <text class="cls-4" transform="translate(4.13 270.41)"><tspan x="0" y="0">nevilles</tspan></text>
    <text class="cls-8" transform="translate(0 322.63)"><tspan class="cls-6" x="0" y="0">PL</tspan><tspan class="cls-5" x="97.48" y="0">A</tspan><tspan class="cls-3" x="147.43" y="0">Y</tspan><tspan class="cls-6" x="196.29" y="0">G</tspan><tspan class="cls-2" x="250.64" y="0">R</tspan><tspan class="cls-1" x="300.9" y="0">OUND</tspan></text>
    <path class="cls-7" d="m301.81,65.46c5.57,0,9.51,2.18,11.84,6.55,2.32,4.36,3.48,10.95,3.48,19.77,0,4.73-.49,9.14-1.46,13.23-.97,4.09-2.78,7.38-5.43,9.89-2.65,2.51-6.52,3.76-11.63,3.76h-4.87v-41.22c0-4.83.49-8.03,1.46-9.61.97-1.58,3.18-2.37,6.61-2.37Zm36.02,41.63c-.98,1.32-2.1,2.6-3.37,3.83-3.2,3.11-7.61,5.64-13.23,7.59-5.62,1.95-12.7,2.92-21.23,2.92h-6.27v23.95c0,3.71.37,6.48,1.11,8.28.32.77.77,1.42,1.36,1.96h73.12l-31.5-48.54Zm-136.21,46.4c1.16-1.01,1.96-2.72,2.36-5.07.43-2.57.65-6.18.65-10.75v-39.47l-37.26,57.43h29.42c2.15-.5,3.77-1.21,4.83-2.14Zm66.91-34.74v-41.32c0-2.75-.17-4.91-.5-6.5-.03-.02-.05-.04-.08-.06-1.66-1.17-4.52-1.98-8.5-2.4l-1.08-.12v-2.89s0,0-.01,0v-2.78c2.51.09,5.85.19,10.03.28,4.18.09,8.35.14,12.53.14,4.55,0,8.93-.05,13.16-.14,4.22-.09,7.22-.14,8.98-.14,2.15,0,4.2.07,6.17.2l-13.94-21.49c-2.56,5.95-8.47,10.12-15.36,10.12-9.23,0-16.72-7.49-16.72-16.72,0-2.75.67-5.35,1.85-7.64.24,3.71,3.32,6.64,7.09,6.64s7.11-3.18,7.11-7.11c0-3.67-2.78-6.69-6.34-7.07,2.13-.99,4.51-1.54,7.02-1.54.08,0,.16,0,.24,0l-11.82-18.21-44.15,68.05,44.34,50.7Zm-58.39-25.08v41.85c0,5.37.26,9.52.79,12.34.48,2.6,1.5,4.39,3.11,5.46,1.51,1.01,3.88,1.78,7.05,2.3h41.66l-52.61-61.96Z"/>
  </g>
</svg>